<svg xmlns="http://www.w3.org/2000/svg" xmlns:xlink="http://www.w3.org/1999/xlink" width="239" height="432" viewBox="0 0 239 432"><defs><clipPath id="a"><rect width="239" height="432" transform="translate(0 -189.025)" fill="#3f51b5" stroke="#ccc" stroke-width="1"/></clipPath><clipPath id="b"><rect width="236.53" height="165.4" fill="#fba650"/></clipPath><clipPath id="c"><path d="M51.351,150.591C9.8,147,11.964,118.251,11.964,98.135,11.964,81.164,3.77,69.212,0,65.761V0S25.165,15.916,64.269,14.356s70.771-2.231,79.723,35.882,56.662,27.156,60.018,56.286c2.072,17.993-13.6,27.217-5.922,41.438S236.531,165.4,236.531,165.4H75.1c-5.489-6.11-15.132-14.063-23.746-14.808" transform="translate(0 0)" fill="#fba650"/></clipPath><clipPath id="d"><rect width="428.789" height="278.47" fill="#fd7e50"/></clipPath><clipPath id="e"><path d="M93.09,253.538c-75.325-6.05-71.4-54.449-71.4-88.316,0-28.573-14.854-48.695-21.688-54.5V0S45.62,26.8,116.509,24.17,244.8,20.413,261.034,84.582s102.719,45.721,108.8,94.763c3.757,30.293-24.661,45.824-10.736,69.765s69.69,29.359,69.69,29.359H136.137c-9.951-10.287-27.432-23.677-43.047-24.931" fill="#fd7e50"/></clipPath><clipPath id="f"><rect width="486.876" height="343.181" fill="#893976"/></clipPath><clipPath id="g"><path d="M114.971,305.035C24.45,297.5,22.316,245.2,21.069,213.581,20.042,187.532,8.213,162.2,0,154.965V0S58.039,36.262,143.23,32.991s154.43-11.851,173.934,68.059,119.974,57.616,127.284,118.689c4.515,37.724-42.266,51.511-25.532,81.326s67.961,42.115,67.961,42.115H185.59c-13.711-17.862-51.853-36.583-70.619-38.145" fill="#893976"/></clipPath><clipPath id="h"><rect width="486.876" height="343.181" fill="#712b5f"/></clipPath><clipPath id="i"><path d="M114.971,305.035C24.45,297.5,22.316,245.2,21.069,213.581,20.042,187.532,8.213,162.2,0,154.965V0S58.039,36.262,143.23,32.991s154.43-11.851,173.934,68.059,119.974,57.616,127.284,118.689c4.515,37.724-42.266,51.511-25.532,81.326s67.961,42.115,67.961,42.115H185.59c-13.711-17.862-51.853-36.583-70.619-38.145" fill="#712b5f"/></clipPath></defs><g transform="translate(0 189.025)" clip-path="url(#a)"><g transform="translate(32.19 207.784) rotate(-84)" clip-path="url(#b)"><g transform="translate(0 0)"><g transform="translate(0 0)" clip-path="url(#c)"><rect width="236.531" height="165.399" transform="translate(0 0)" fill="#fba650"/></g></g></g><g transform="translate(59.719 214.362) rotate(-67)" clip-path="url(#d)"><g transform="translate(-46.541 192.873) rotate(-48)"><g transform="translate(0 0)" clip-path="url(#e)"><rect width="428.79" height="278.469" transform="translate(0 0)" fill="#fd7e50"/></g></g></g><g transform="matrix(0.996, 0.087, -0.087, 0.996, -195.367, -35.897)" clip-path="url(#f)"><g transform="translate(0 0.001)"><g clip-path="url(#g)"><rect width="486.876" height="343.18" transform="translate(0 0)" fill="#893976"/></g></g></g><g transform="translate(-265.78 107.657) rotate(-14)" clip-path="url(#h)"><g transform="translate(0 0.001)"><g clip-path="url(#i)"><rect width="486.876" height="343.18" transform="translate(0 0)" fill="#712b5f"/></g></g></g></g></svg>